<svg xmlns="http://www.w3.org/2000/svg" xmlns:xlink="http://www.w3.org/1999/xlink" width="115" height="50"
	 viewBox="0 0 115 50">
	<defs>
		<path id="a" d="M.075.057h21.573V31.86H.075z"/>
		<path id="c" d="M.13.005h17.595v31.802H.13z"/>
		<path id="e"
			  d="M.024.62c.19-.357.518-.535.982-.535.696 0 .928.421 1.995.441C4.07.546 4.341.318 4.71.351c.368.033.696.239.883.38-.277.625-1.32.706-2.26.794-.165.015-.193-.05-.305-.117a.372.372 0 0 1-.3.068c-.096-.018-.428-.096-.8-.068-.373.027-.544.068-.745.027C.616 1.32.23 1.048.024.62z"/>
		<path id="g" d="M0 .04h17.594v18.258H0z"/>
	</defs>
	<g fill="none" fill-rule="evenodd">
		<g transform="translate(93.335 16.207)">
			<mask id="b" fill="#fff">
				<use xlink:href="#a"/>
			</mask>
			<path fill="#FEFEFE"
				  d="M10.327 10.594v-1.9c0-.146.078-.28.205-.354l2.523-1.457a.409.409 0 0 1 .409 0l2.524 1.457a.409.409 0 0 0 .408 0l5.048-2.913a.409.409 0 0 0 0-.708L13.464.112a.409.409 0 0 0-.409 0L4.667 4.955a.408.408 0 0 0-.204.354v10.42a.409.409 0 0 1-.41.408h-.655a.409.409 0 0 0-.354.204L.13 21.388A.409.409 0 0 0 .484 22h3.57c.225 0 .409.183.409.409v9.04c0 .315.34.511.613.354l5.047-2.914a.409.409 0 0 0 .204-.354V22.41c0-.226.183-.41.41-.41h.654a.409.409 0 0 0 .354-.203l2.914-5.047a.409.409 0 0 0-.354-.613h-3.569a.409.409 0 0 1-.409-.409v-5.134z"
				  mask="url(#b)"/>
		</g>
		<path fill="#FEFEFE"
			  d="M82.024 29.862l-8.388 4.843a.409.409 0 0 0-.205.354v12.598c0 .315.34.512.613.354l5.048-2.913a.409.409 0 0 0 .204-.354v-6.3c0-.146.078-.28.205-.354l2.523-1.456a.409.409 0 0 1 .409 0l2.523 1.456a.409.409 0 0 1 .205.354v6.3c0 .146.078.28.204.354l5.047 2.913a.409.409 0 0 0 .614-.354V35.06a.408.408 0 0 0-.205-.354l-8.388-4.843a.409.409 0 0 0-.409 0M63.976 41.712l-2.524 1.457a.409.409 0 0 1-.408 0l-2.524-1.457a.408.408 0 0 1-.204-.354v-2.914c0-.146.078-.28.204-.354l2.524-1.457a.409.409 0 0 1 .408 0l2.524 1.457a.409.409 0 0 1 .204.354v2.914c0 .146-.077.28-.204.354m-2.932-11.85l-8.389 4.843a.409.409 0 0 0-.204.354v9.685c0 .146.078.28.204.354l8.389 4.842a.41.41 0 0 0 .408 0l8.389-4.842a.409.409 0 0 0 .204-.354v-9.685a.409.409 0 0 0-.204-.354l-8.389-4.843a.41.41 0 0 0-.408 0M40.063 43.169l-2.523-1.457a.409.409 0 0 1-.205-.354v-2.914c0-.146.078-.28.205-.354l2.523-1.456a.409.409 0 0 1 .409 0l2.728 1.574 5.252-3.031a.409.409 0 0 0 0-.708l-7.98-4.607a.409.409 0 0 0-.409 0l-8.388 4.843a.409.409 0 0 0-.205.354v9.685c0 .146.078.28.205.354l8.388 4.842a.409.409 0 0 0 .409 0l7.98-4.606a.409.409 0 0 0 0-.708l-5.048-2.914a.409.409 0 0 0-.408 0l-2.524 1.457a.409.409 0 0 1-.409 0M80.331 16.648l-8.388-4.843a.409.409 0 0 0-.409 0l-8.388 4.843a.409.409 0 0 0-.205.354v9.685c0 .146.078.28.205.354l8.388 4.842a.409.409 0 0 0 .409 0l5.047-2.913a.409.409 0 0 0 0-.708L71.74 25.23l-2.728-1.575a.409.409 0 0 1-.205-.354v-2.913c0-.147.078-.281.205-.354l2.523-1.457a.41.41 0 0 1 .409 0l2.524 1.457a.409.409 0 0 1 .204.354v2.441c0 .315.34.512.613.354l5.047-2.913a.409.409 0 0 0 .205-.354v-2.914a.409.409 0 0 0-.205-.354"/>
		<path fill="#6CC24A" d="M73.205 22.69v-1.692l-1.466-.847-1.467.847v1.693l1.467.846z"/>
		<g transform="translate(41.83 .131)">
			<mask id="d" fill="#fff">
				<use xlink:href="#c"/>
			</mask>
			<path fill="#FEFEFE"
				  d="M8.723 24.98L6.2 23.525a.409.409 0 0 1-.205-.354v-2.914c0-.146.078-.28.205-.354l2.523-1.456a.409.409 0 0 1 .409 0l2.524 1.456a.408.408 0 0 1 .204.354v2.914c0 .146-.078.281-.204.354l-2.524 1.457a.409.409 0 0 1-.409 0M11.86.415V12.54c0 .315-.34.512-.613.354l-2.115-1.22a.409.409 0 0 0-.409 0L.335 16.516a.409.409 0 0 0-.205.354v9.685c0 .146.078.28.205.354l8.388 4.842a.41.41 0 0 0 .409 0l8.388-4.842a.409.409 0 0 0 .205-.354V3.328a.409.409 0 0 0-.205-.354L12.473.06a.409.409 0 0 0-.613.355"
				  mask="url(#d)"/>
		</g>
		<path fill="#FEFEFE"
			  d="M29.778 11.07c-.191 0-.38.05-.545.145l-8.389 4.843a1.093 1.093 0 0 0-.545.944v9.685c0 .388.21.75.545.944l8.389 4.842a1.09 1.09 0 0 0 1.09 0l8.388-4.842c.336-.194.545-.556.545-.944v-9.685c0-.388-.209-.75-.545-.944l-8.388-4.843a1.092 1.092 0 0 0-.545-.146m0 .682c.07 0 .14.018.204.054l8.388 4.843a.408.408 0 0 1 .205.354v9.685c0 .146-.078.28-.205.354l-8.388 4.842a.408.408 0 0 1-.409 0l-8.388-4.842a.409.409 0 0 1-.205-.354v-9.685c0-.146.078-.281.205-.354l8.388-4.843a.408.408 0 0 1 .205-.054"/>
		<path fill="#FEFEFE"
			  d="M28.543 5.151L28.05 6.81l-.092-.09-.356-.353-.446.231c-.59.314-1.04.752-1.34 1.304a2.395 2.395 0 0 0-.093-.1l-1.474-1.513.312 2.088c.027.178-.022.264-.322.574a9.083 9.083 0 0 0-.787.933 8.8 8.8 0 0 0-1.639 3.934 9.605 9.605 0 0 0-.026 2.627c.022.178.053.348.084.512.037.2.072.39.085.569.036.495.141.978.321 1.479.21.583.407 1.163.588 1.726.016.051.026.138.037.23.007.066.015.132.025.197l1.354-.098c.006-.542.1-1.116.3-1.804.127-.442.251-.906.369-1.383h.085l.041.002.69.01.003-.69c0-.496.114-.904.352-1.251l.663.591.044.04.785.7.318-1.002.065-.21c.04-.133.075-.248.115-.355.106-.283.221-.438.352-.524.053.176.068.355.045.543l-.444.325.3.287-.381 1.458 1.082-.79.425.405.23-.875c.054-.041.113-.09.17-.152.148-.16.276-.337.383-.526.141.07.282.127.408.177l.159.064c.343.144.387.295.404.437a1.92 1.92 0 0 0 .04.23l.158.84.783-.341c.368-.16.9-.431 1.274-.94l.023-.031c.168.484.351.946.516 1.351.248.608.504 1.236.637 1.873l.116.554.06.286.644 3.095.687-3.086c.017-.074.032-.147.046-.218.028-.138.052-.257.085-.363a4.311 4.311 0 0 1 .347-.784c.147-.273.315-.583.377-.977.037-.236.079-.478.119-.712.09-.531.185-1.08.243-1.636.066-.623.041-1.181-.075-1.691h.877l-.41-.951a6.54 6.54 0 0 0-.908-1.515l.156-.134-.235-.475-.003-.007a1.026 1.026 0 0 0-.089-.164 3.266 3.266 0 0 0-2.032-1.397.335.335 0 0 1 .045-.106c.068-.108.151-.217.248-.344l.155-.206.629-.853-1.037-.218-.221-.05c-.182-.043-.37-.088-.576-.11l.91-.587-2.234-.043a10.461 10.461 0 0 0-.185-.002c-1.173 0-2.139.225-2.97.699l-.127-.333-.059-.154-.715-1.885zM27.476 7.2l.003.003c-.041.148-.089.294-.122.444a2.104 2.104 0 0 0-.057.387c-.01.291.123.446.365.446a.752.752 0 0 0 .176-.023c.248-.06.436-.196.533-.438.047-.117.091-.234.131-.353.038-.113.069-.228.116-.388l.495 1.304c.955-.808 2.068-1.076 3.298-1.076.057 0 .114 0 .172.002-.122.078-.215.13-.3.194-.224.17-.309.43-.222.647.03.075.063.12.12.12a.21.21 0 0 0 .096-.031 2.62 2.62 0 0 1 1.557-.306c.246.026.487.098.743.152-.16.216-.307.395-.43.588-.178.28-.194.59-.125.91.024.11.078.155.195.17.811.11 1.465.485 1.928 1.17.019.029.03.061.045.092l-.01.008c-.088-.038-.174-.095-.266-.11a.509.509 0 0 0-.083-.007.92.92 0 0 0-.256.044 5.853 5.853 0 0 1 1.587 2.157c-.065 0-.122-.007-.172-.007a.274.274 0 0 0-.084.01c-.12.04-.244.089-.344.163-.045.033-.068.151-.045.21.243.624.27 1.278.202 1.925-.082.775-.236 1.542-.358 2.313-.063.4-.304.722-.468 1.079a4.9 4.9 0 0 0-.233.586c-.063.2-.096.41-.146.635l-.175-.84c-.144-.69-.407-1.34-.673-1.99a22.147 22.147 0 0 1-.666-1.813c-.094-.304-.082-.641-.113-.964-.009-.083-.002-.167-.042-.261-.091.184-.172.375-.274.552-.2.345-.39.7-.624 1.02-.247.334-.603.546-.996.717-.014-.072-.027-.126-.034-.181-.058-.507-.372-.801-.817-.988-.2-.084-.407-.155-.596-.259-.202-.11-.386-.253-.582-.385-.07.402-.243.779-.535 1.094-.074.08-.176.133-.265.199.143-.55.082-1.07-.197-1.57-.06-.107-.126-.143-.22-.143a.481.481 0 0 0-.07.005c-.627.091-.96.506-1.165 1.057-.07.187-.122.38-.191.596l-1.205-1.075c-.68.576-.988 1.317-.99 2.203l-.04-.001-.433-1.047c-.092.463-.163.884-.262 1.299-.13.543-.27 1.085-.426 1.622-.188.649-.32 1.304-.326 1.986-.027-.177-.032-.362-.086-.53a54.937 54.937 0 0 0-.596-1.748 4.87 4.87 0 0 1-.283-1.299c-.027-.374-.126-.742-.172-1.115a8.877 8.877 0 0 1 .024-2.44 8.09 8.09 0 0 1 1.514-3.633c.222-.302.466-.593.727-.863.301-.31.586-.615.507-1.148.333.342.467.8.878.948.073-.291.102-.575.214-.823.238-.529.633-.928 1.149-1.202z"/>
		<path fill="#6CC24A"
			  d="M38.575 26.687v-9.685a.409.409 0 0 0-.205-.354l-8.388-4.843a.409.409 0 0 0-.409 0l-8.388 4.843a.409.409 0 0 0-.205.354v9.685c0 .146.078.28.205.354l8.388 4.842a.409.409 0 0 0 .409 0l8.388-4.842a.409.409 0 0 0 .205-.354"/>
		<path fill="#333"
			  d="M27.479 7.202c-.041.148-.09.294-.122.443a2.107 2.107 0 0 0-.057.388c-.011.355.189.508.541.423.248-.06.436-.196.533-.438.047-.117.091-.234.131-.353.038-.113.069-.227.116-.388l.495 1.304c1-.845 2.17-1.1 3.47-1.074-.122.078-.215.13-.3.194-.224.17-.309.43-.222.647.043.11.094.155.216.089a2.628 2.628 0 0 1 1.557-.306c.246.026.487.098.743.152-.16.216-.307.395-.43.588-.178.28-.194.59-.125.909.024.11.078.156.195.172.811.11 1.465.484 1.928 1.17.019.028.03.06.045.09l-.01.01c-.088-.04-.174-.096-.266-.111a.773.773 0 0 0-.34.037 5.854 5.854 0 0 1 1.588 2.157c-.105 0-.187-.019-.256.004a1.18 1.18 0 0 0-.344.162c-.045.033-.068.151-.045.21.243.624.27 1.278.202 1.925-.082.775-.236 1.542-.358 2.313-.063.4-.304.722-.468 1.079a4.937 4.937 0 0 0-.234.586c-.062.2-.095.41-.145.635l-.175-.84c-.144-.69-.407-1.34-.673-1.99a22.182 22.182 0 0 1-.666-1.813c-.094-.304-.082-.641-.113-.964-.009-.083-.002-.167-.042-.261-.091.184-.172.375-.274.552-.2.345-.39.7-.624 1.019-.247.335-.603.547-.996.718-.014-.072-.027-.126-.034-.181-.058-.507-.372-.801-.817-.988-.2-.084-.407-.155-.596-.259-.202-.11-.386-.253-.582-.384-.07.4-.243.778-.536 1.093-.074.08-.177.134-.266.2l.001.001a2.042 2.042 0 0 0-.196-1.572c-.074-.132-.159-.157-.29-.138-.627.091-.96.506-1.165 1.057-.07.187-.122.38-.191.596l-1.205-1.075c-.68.576-.988 1.317-.99 2.203l-.04-.001-.433-1.047c-.092.463-.163.884-.262 1.299-.13.543-.27 1.085-.426 1.622-.187.649-.32 1.304-.326 1.986-.027-.177-.032-.362-.086-.53a54.823 54.823 0 0 0-.596-1.748 4.871 4.871 0 0 1-.283-1.3c-.027-.373-.126-.74-.172-1.114a8.882 8.882 0 0 1 .024-2.44A8.092 8.092 0 0 1 24 10.286c.222-.302.466-.593.727-.863.301-.31.586-.615.507-1.148.333.342.467.8.878.948.073-.291.103-.575.214-.823.238-.529.633-.928 1.149-1.202l.003.003z"/>
		<path fill="#323232"
			  d="M27.443 20.604c-.08-.06-.157-.126-.242-.179a48.562 48.562 0 0 0-.84-.513c-.48-.287-.977-.362-1.497-.102-.076.037-.157.064-.271.11.238-.49.636-.87.694-1.432.078.33.056.462-.153.952l-.005.033.022-.015c.695-.218 1.305.019 1.885.371.38.231.742.491 1.118.73.225.142.468.264.741.165.142-.05.265-.153.376-.22-.05.188-.277.377-.528.38-.216.002-.431-.026-.647-.04l-.653-.24M30.47 20.575c.37.32.74.248 1.114.007.42-.274.836-.557 1.266-.815.392-.236.816-.39 1.285-.349.151.013.3.053.46.082-.17-.304-.275-.618-.18-.965.054.539.448.913.691 1.409-.156-.057-.28-.09-.394-.146-.382-.184-.767-.148-1.124.032-.406.206-.788.46-1.18.695-.016.01-.024.037-.035.056l-.746.28c-.23.02-.46.062-.688.053a.539.539 0 0 1-.48-.33l.011-.009z"/>
		<g fill="#323232">
			<path
				d="M33.755 25.283l-.56-.857a15.18 15.18 0 0 0-1.73-2.208c-.038-.04-.081-.074-.14-.127-.004.28-.158.427-.367.534-.249.127-.506.245-.633.522-.017.035-.07.059-.111.076-.306.135-.622.127-.938.045a.289.289 0 0 1-.143-.114 1.5 1.5 0 0 0-.649-.513c-.341-.151-.386-.258-.274-.615.026-.085.06-.167.077-.257-1.163 1.066-2.032 2.353-2.858 3.685l.09-.18.11-.193c.66-1.148 1.406-2.231 2.337-3.178.152-.154.325-.286.494-.422.027-.022.089-.028.12-.012.128.067.25.145.363.246l-.44-.142c-.08.196-.17.381-.229.575-.064.213-.003.318.204.405.283.119.545.26.725.524a.286.286 0 0 0 .201.109 5.14 5.14 0 0 0 .676-.035c.07-.008.136-.077.196-.126.167-.134.316-.296.498-.405.513-.306.592-.685.213-1.173l-.42.165-.014-.028.454-.281c.045.07.102.126.12.192.098.367.38.601.616.868.753.85 1.393 1.778 1.955 2.763.028.047.038.105.056.158l.001-.001z"/>
			<path d="M28.953 21.406c.307-.267.663-.331 1.05-.233.136.034.265.1.39.18a3.3 3.3 0 0 0-1.441.052v.001z"/>
		</g>
		<path fill="#323232"
			  d="M33.887 22.739c.48.516.627 1.148.703 1.81-.152-1.02-.604-1.827-1.587-2.271.27.036.541.098.813.103.35.007.703-.029 1.054-.055.035-.003.075-.063.094-.105.092-.201.178-.405.298-.6-.057.326-.111.653-.174.978-.008.037-.063.073-.104.092-.291.136-.595.134-.903.071-.064-.013-.13-.016-.194-.023M24.73 24.165c.064-.43.274-.861.657-1.253-.187.018-.32.014-.444.046-.256.066-.486-.016-.716-.099-.045-.016-.092-.084-.102-.134a8.521 8.521 0 0 1-.13-.954c.078.187.16.372.234.56.046.118.115.163.248.189.567.109 1.123.019 1.681-.057.02-.003.039-.002.014-.001-.294.226-.661.425-.912.723-.247.293-.377.685-.53.98M27.893 27.1c.041.013.087.02.125.04.464.252.96.222 1.466.2.465-.019.932.039 1.397.02.25-.009.496-.104.743-.164.058-.014.112-.045.168-.068l.023.046c-.127.06-.255.116-.38.178-.259.126-.526.142-.813.127-.482-.025-.972-.046-1.449.01-.437.051-.795-.08-1.153-.28-.047-.027-.09-.059-.136-.089l.009-.02"/>
		<g transform="translate(27.01 25.174)">
			<mask id="f" fill="#fff">
				<use xlink:href="#e"/>
			</mask>
			<g mask="url(#f)">
				<path fill="#323232"
					  d="M1.374.113l-.068.118C1.035.02.972.059.9.473.703.393.687.568.64.673c-.119.277-.167.505.11.64l.104-.088.14.203c-.183-.078-.38-.134-.542-.242A1.45 1.45 0 0 1 .104.818C-.046.61-.034.575.145.386.502.01.937-.068 1.423.052l-.05.061M5.167 1.163c.047-.143.102-.284.139-.43C5.334.622 5.299.522 5.19.46l.44.268c-.116.21-.257.356-.464.435"/>
				<path fill="#1C1C17" d="M5.189.463l-.27.063L4.821.33l.368.134"/>
			</g>
			<g fill="#F7F7F5" mask="url(#f)">
				<path
					d="M1.472.868L1.446.853c-.001.01-.003.019-.002.028 0 .003.012.008.013.007.006-.006.01-.013.015-.02zm-.09.488c.008 0 .015-.002.023-.003V.964h-.023v.392zM1.374.113c.108.02.221.026.323.062.177.062.347.143.519.216l.044.018.54.084.161.05v.49C2.788.97 2.625.988 2.455.925c-.193-.07-.22-.148-.21-.308.001-.034-.01-.07-.015-.105l-.034.002v.352h-.289L1.896.858l.013.006v.474c.032-.105.043-.212.065-.316.008-.038.044-.098.07-.099.123-.005.249.004.373.016.023.002.062.046.06.067-.014.145-.036.29-.056.434l-.067-.006-.447.002c-.064.016-.128.043-.193.044-.105.002-.21-.017-.315-.02-.041 0-.083.019-.123.029l-.187-.026-.006.009.009.005-.105-.042.007-.007-.14-.203-.102.087C.474 1.178.522.95.642.673.687.568.702.393.9.473.97.059 1.035.02 1.306.23l.068-.117zM4.798.644C4.788.638 4.78.632 4.77.629c-.003-.001-.01.004-.014.005.004.007.008.019.011.019.01 0 .02-.006.03-.01zm-.265.35c-.01 0-.019.002-.028.004l.021.304.007-.001V.993zm.065-.618l-.046.385.046.004V.376zm-.117.49l-.055.032.02.023.034-.056.007-.012a.354.354 0 0 1-.006.012zM4.24.863l.07-.007-.007-.024-.062.032A.555.555 0 0 0 4.24.864zm.927.3c-.07.035-.138.071-.207.107L4.926.797 4.897.741l-.019.015.05.04.004.483c-.208.056-.413.125-.624.164-.226.041-.458.054-.687.08v-.035c0-.356 0-.356.384-.406-.072-.005-.1-.011-.126-.007-.147.021-.208-.031-.193-.188.013-.136 0-.274-.002-.41.381-.034.748-.179 1.137-.148l.098.197.27-.063L5.19.46c.108.061.143.162.115.273-.037.146-.092.287-.14.43zM3.452.49l.209-.01-.072.59-.585-.092c0-.092-.008-.228.005-.362.003-.034.066-.08.108-.089.11-.021.223-.025.335-.036M3.594 1.525c-.177 0-.365.083-.523-.068 0-.078.004-.156-.002-.233-.012-.14.055-.2.187-.19.112.008.222.024.333.037l.005.454"/>
				<path
					d="M2.493 1.442c.01-.107.012-.216.033-.321.007-.034.063-.062.1-.085.017-.01.045-.002.068-.002.297 0 .319.022.315.316l-.002.103c-.064.019-.13.056-.193.052-.108-.008-.214-.04-.321-.063"/>
			</g>
			<g fill="#C0C4C1" mask="url(#f)">
				<path
					d="M3.589 1.07c-.11-.012-.222-.028-.333-.036-.132-.01-.199.05-.187.19.006.077.002.155.002.233l-.064-.004.002-.102c.004-.294-.018-.316-.315-.317-.023 0-.051-.008-.068.002-.037.023-.093.05-.1.085-.021.105-.023.214-.033.321a12.784 12.784 0 0 0-.072-.002c.02-.145.042-.289.056-.434.002-.021-.037-.065-.06-.067a2.739 2.739 0 0 0-.374-.016c-.025.001-.06.061-.069.1-.022.103-.033.21-.065.315V.864l-.002.002h.29V.514L2.23.512c.004.035.015.07.013.105-.01.16.018.237.211.308.17.063.333.046.506.108v-.49l-.16-.05.651-.002c-.112.01-.225.015-.335.036-.042.009-.105.055-.108.09-.013.133-.005.269-.005.361l.585.093M3.594 1.525l-.005-.454L3.66.48l.01-.01.013.006c.002.137.015.275.002.411-.015.157.046.21.193.188.026-.004.054.002.126.007-.384.05-.384.05-.385.406v.035l-.012.007-.014-.005zM4.926.797l.034.474a.038.038 0 0 1-.028.008L4.928.796l-.002.001zM1.382 1.356V.964h.023v.389l-.023.003M1.472.868c-.005.007-.009.014-.015.02-.001.001-.013-.004-.013-.007l.002-.028.026.015M4.598.376v.389L4.552.76l.046-.385M4.533.993v.308l-.007.001-.021-.304.028-.005M4.48.864l-.034.057-.02-.023.055-.033zM4.242.865l.061-.032.007.024-.07.007.002.001zM4.798.644c-.01.003-.02.009-.03.009-.003 0-.007-.012-.011-.019.005-.001.01-.006.014-.005.01.003.018.01.027.015M4.928.796l-.05-.04.02-.015.028.056.002-.001z"/>
			</g>
		</g>
		<path fill="#F7F7F5"
			  d="M31.627 20.86l.746-.28c.044-.003.093.004.134-.012.396-.155.698.033 1.026.293-.22.073-.412.162-.613.199-.414.077-.827.06-1.217-.127-.03-.014-.051-.048-.076-.073M27.443 20.604l.653.24c-.152.066-.3.161-.459.193-.498.098-.983.058-1.46-.22.19-.112.352-.229.53-.304.09-.037.211-.006.316.009.141.02.28.054.42.082"/>
		<g fill="#323232">
			<path
				d="M26.037 21.07c.036.016.087.116.084.17-.006.096-.033.234-.075.271-.16.14-.326.269-.498.356-.104.053-.215.07-.326.089l-.102.02.915-.823.01-.058-.89.087c.29-.273.585-.236.882-.111zM25.006 20.55l.78.283c-.28-.044-.566-.075-.778-.285l-.002.001zM25.078 20.206l.58.44a1.08 1.08 0 0 1-.579-.441l-.001.001z"/>
		</g>
		<g fill="#323232">
			<path
				d="M30.495 16.945c-.146.086-.283.198-.44.254-.436.156-1.448.054-1.83-.143.346.052.743.127 1.143.165.339.032.67-.028.97-.212.047-.03.105-.043.158-.063l-.001-.001zM26.49 17.254l1.5.437c-.275.033-1.01-.173-1.5-.437M28.99 17.825h.974c-.321.128-.644.072-.973 0"/>
		</g>
		<g fill="#323232">
			<path
				d="M33.87 20.815l.803-.165c-.278.085-.538.337-.802.165M34.045 21.565l-.588-.236.011-.036.596.216-.019.056M34.373 21.334l-.448-.248c.18.024.334.098.446.25l.002-.002zM33.785 21.166l.45.204-.02.05-.449-.214.019-.04"/>
		</g>
		<g transform="translate(0 11.711)">
			<mask id="h" fill="#fff">
				<use xlink:href="#g"/>
			</mask>
			<path fill="#FEFEFE"
				  d="M8.593.094L.204 4.936A.409.409 0 0 0 0 5.29v12.6c0 .314.34.51.613.353l5.047-2.914a.409.409 0 0 0 .205-.354V8.676c0-.146.078-.28.204-.354l2.524-1.457a.41.41 0 0 1 .409 0l2.523 1.457a.409.409 0 0 1 .205.354v6.3c0 .145.078.28.204.353l5.047 2.914a.409.409 0 0 0 .613-.354V5.29a.409.409 0 0 0-.204-.354L9.002.094a.409.409 0 0 0-.41 0"
				  mask="url(#h)"/>
		</g>
	</g>
</svg>
